<?xml version="1.0" encoding="UTF-8"?>
<svg xmlns="http://www.w3.org/2000/svg" xmlns:xlink="http://www.w3.org/1999/xlink" viewBox="0 0 150 150" width="150px" height="150px">
<g id="surface380570">
<path style=" stroke:none;fill-rule:nonzero;fill:rgb(46.666667%,48.235294%,70.19608%);fill-opacity:1;" d="M 75 36 C 34.628906 36 3 53.132812 3 75 C 3 96.867188 34.628906 114 75 114 C 115.371094 114 147 96.867188 147 75 C 147 53.132812 115.371094 36 75 36 Z M 67.523438 48 L 75.386719 48 L 72.890625 60 L 79.910156 60 C 84.363281 60 87.351562 60.621094 89.050781 62.179688 C 90.714844 63.714844 91.21875 66.234375 90.550781 69.667969 L 87.433594 84 L 79.441406 84 L 82.3125 70.746094 C 82.664062 68.929688 82.523438 67.664062 81.914062 66.996094 C 81.304688 66.328125 79.96875 66 77.964844 66 L 71.671875 66 L 67.875 84 L 60 84 Z M 33 60 L 48.996094 60 C 56.625 60 61.242188 65.109375 59.4375 72.738281 C 57.339844 81.597656 51.714844 84 41.378906 84 L 36.433594 84 L 34.863281 93 L 26.917969 93 Z M 96 60 L 111.996094 60 C 119.625 60 124.242188 65.109375 122.4375 72.738281 C 120.339844 81.597656 114.714844 84 104.378906 84 L 99.433594 84 L 97.863281 93 L 89.917969 93 Z M 39.808594 66 L 37.546875 78 L 42.679688 78 C 47.121094 78 51.246094 77.496094 51.9375 70.875 C 52.195312 68.308594 51.128906 66 45.996094 66 Z M 102.808594 66 L 100.546875 78 L 105.679688 78 C 110.121094 78 114.246094 77.496094 114.9375 70.875 C 115.195312 68.308594 114.128906 66 108.996094 66 Z M 102.808594 66 "/>
</g>
</svg>
